<?xml version="1.0" standalone="no"?>
<!DOCTYPE svg PUBLIC "-//W3C//DTD SVG 1.1//EN" "http://www.w3.org/Graphics/SVG/1.1/DTD/svg11.dtd" >
<!--
2013-9-30: Created.
-->
<svg>
<metadata>
Created by iconfont
</metadata>
<defs>

<font id="iconfont" horiz-adv-x="1024" >
  <font-face
    font-family="iconfont"
    font-weight="500"
    font-stretch="normal"
    units-per-em="1024"
    ascent="896"
    descent="-128"
  />
    <missing-glyph />
    
    <glyph glyph-name="edit" unicode="&#58953;" d="M800-64 224-64c-52.928 0-96 43.072-96 96L128 672c0 52.928 43.072 96 96 96l448 0c17.696 0 32-14.336 32-32s-14.304-32-32-32L224 704C206.368 704 192 689.632 192 672l0-640c0-17.664 14.368-32 32-32l576 0c17.664 0 32 14.336 32 32L832 544c0 17.664 14.304 32 32 32s32-14.336 32-32l0-512C896-20.928 852.928-64 800-64zM612 448c-8.192 0-16.384 3.136-22.624 9.376-12.512 12.512-12.512 32.736 0 45.248l318.016 318.016c12.512 12.512 32.736 12.512 45.248 0s12.512-32.736 0-45.248l-318.016-318.016C628.384 451.104 620.192 448 612 448zM480 448 288 448c-17.664 0-32 14.336-32 32s14.336 32 32 32l192 0c17.664 0 32-14.336 32-32S497.664 448 480 448zM672 256 288 256c-17.664 0-32 14.304-32 32s14.336 32 32 32l384 0c17.696 0 32-14.304 32-32S689.696 256 672 256z"  horiz-adv-x="1024" />

    
    <glyph glyph-name="favor" unicode="&#58956;" d="M767.104-63.936c-5.344 0-10.688 1.344-15.52 4.032l-241.312 133.856-241.824-133.024c-10.72-5.92-23.904-5.152-33.888 1.92-10.016 7.072-15.104 19.264-13.12 31.328l46.88 284.736-196.448 202.08c-8.256 8.512-11.168 20.928-7.456 32.192 3.68 11.296 13.312 19.616 25.024 21.632l155.072 26.592c17.632 2.944 33.984-8.736 36.96-26.144 2.976-17.408-8.704-33.952-26.144-36.96l-95.168-16.32 165.344-170.08c7.072-7.296 10.272-17.504 8.64-27.488l-38.816-235.68 199.616 109.824c9.632 5.312 21.344 5.312 30.944-0.064l199.168-110.464-38.016 235.776c-1.632 10.016 1.632 20.224 8.704 27.456l164.672 168.256-225.664 34.816c-10.56 1.632-19.584 8.416-24.128 18.08l-99.2 212.384-100.064-211.84c-7.552-16-26.624-22.816-42.624-15.264-15.968 7.552-22.816 26.624-15.264 42.624l129.152 273.44c5.312 11.2 16.576 18.336 28.928 18.336 0 0 0.032 0 0.064 0 12.416-0.032 23.68-7.232 28.928-18.464l120.8-258.624 270.336-41.728c11.872-1.824 21.696-10.144 25.504-21.504 3.776-11.36 0.864-23.936-7.488-32.48l-196.928-201.216 45.92-284.864c1.952-12.096-3.2-24.256-13.216-31.296C780-62.016 773.568-63.936 767.104-63.936z"  horiz-adv-x="1024" />

    
    <glyph glyph-name="cart" unicode="&#59055;" d="M940.8 611.2c-16 19.2-38.4 28.8-64 28.8h-524.8c-19.2 0-32-12.8-32-32s12.8-32 32-32h524.8c6.4 0 12.8-3.2 16-6.4s6.4-9.6 3.2-19.2l-48-336c0-9.6-12.8-19.2-25.6-19.2h-486.4c-12.8 0-25.6 16-25.6 28.8l-54.4 371.2-28.8 156.8c-6.4 44.8-44.8 80-92.8 80h-38.4c-19.2 0-32-16-32-32s12.8-32 32-32h38.4c12.8 0 25.6-9.6 28.8-25.6l28.8-156.8 51.2-371.2c6.4-48 44.8-86.4 89.6-86.4h486.4c44.8 0 83.2 32 89.6 73.6l51.2 339.2c3.2 25.6-3.2 51.2-19.2 70.4zM259.2 0c0-35.346 28.654-64 64-64s64 28.654 64 64c0 35.346-28.654 64-64 64-35.346 0-64-28.654-64-64zM768 0c0-35.346 28.654-64 64-64s64 28.654 64 64c0 35.346-28.654 64-64 64-35.346 0-64-28.654-64-64z"  horiz-adv-x="1024" />

    
    <glyph glyph-name="copy" unicode="&#59142;" d="M672 64 224 64c-52.928 0-96 43.072-96 96L128 736c0 52.928 43.072 96 96 96l448 0c52.928 0 96-43.072 96-96l0-576C768 107.072 724.928 64 672 64zM224 768C206.368 768 192 753.632 192 736l0-576c0-17.664 14.368-32 32-32l448 0c17.664 0 32 14.336 32 32L704 736c0 17.632-14.336 32-32 32L224 768zM800-64 320-64c-17.664 0-32 14.304-32 32s14.336 32 32 32l480 0c17.664 0 32 14.336 32 32L832 640c0 17.664 14.304 32 32 32s32-14.336 32-32l0-608C896-20.928 852.928-64 800-64zM544 576 288 576c-17.664 0-32 14.336-32 32s14.336 32 32 32l256 0c17.696 0 32-14.336 32-32S561.696 576 544 576zM608 416 288.032 416c-17.664 0-32 14.336-32 32s14.336 32 32 32L608 480c17.696 0 32-14.336 32-32S625.696 416 608 416zM608 256 288 256c-17.664 0-32 14.304-32 32s14.336 32 32 32l320 0c17.696 0 32-14.304 32-32S625.696 256 608 256z"  horiz-adv-x="1024" />

    
    <glyph glyph-name="iconpinglun" unicode="&#58896;" d="M511.459694-108.039389c-10.07445 0-20.147876 3.854794-27.819602 11.526521L365.615025 21.517315c-15.385409 15.380292-15.385409 40.244586 0 55.632041 15.380292 15.380292 40.246633 15.380292 55.626925 0l90.216721-90.216721 90.210581 90.216721c7.359618 7.395434 17.349133 11.526521 27.819602 11.526521l275.399327 0c21.713534 0 39.337937 17.626449 39.337937 39.346123L944.226119 757.503692c0 21.678742-17.624403 39.346123-39.337937 39.346123L118.030184 796.849816c-21.678742 0-39.346123-17.667382-39.346123-39.346123l0-629.482715c0-21.719674 17.667382-39.346123 39.346123-39.346123l118.030184 0c21.712511 0 39.337937-17.582447 39.337937-39.346123 0-21.75549-17.626449-39.337937-39.337937-39.337937L118.030184 9.990794c-65.076134 0-118.030184 52.955072-118.030184 118.030184L0 757.503692c0 65.076134 52.955072 118.030184 118.030184 118.030184l786.859022 0c65.069995 0 118.030184-52.954049 118.030184-118.030184l0-629.482715c0-65.076134-52.961212-118.030184-118.030184-118.030184L645.775796 9.990794 539.27111-96.512868C531.599384-104.185618 521.532097-108.039389 511.459694-108.039389L511.459694-108.039389zM295.071366 403.420305c-32.538067 0-59.010999 26.473955-59.010999 59.010999s26.473955 59.019185 59.010999 59.019185 59.010999-26.481118 59.010999-59.019185S327.609433 403.420305 295.071366 403.420305L295.071366 403.420305zM531.132756 403.420305c-32.538067 0-59.019185 26.473955-59.019185 59.010999s26.481118 59.019185 59.019185 59.019185c32.531927 0 59.010999-26.481118 59.010999-59.019185S563.66366 403.420305 531.132756 403.420305L531.132756 403.420305zM767.18596 403.420305c-32.538067 0-59.010999 26.473955-59.010999 59.010999s26.473955 59.019185 59.010999 59.019185c32.538067 0 59.019185-26.481118 59.019185-59.019185S799.723004 403.420305 767.18596 403.420305L767.18596 403.420305zM767.18596 403.420305"  horiz-adv-x="1039" />

    
    <glyph glyph-name="suo" unicode="&#58946;" d="M808.421053 478.315789l-53.894737 0 0 107.789474c0 134.736842-107.789474 242.526316-242.526316 242.526316-134.736842 0-242.526316-107.789474-242.526316-242.526316l0-107.789474L215.578947 478.315789c-29.642105 0-53.894737-24.252632-53.894737-53.894737l0-431.157895c0-29.642105 24.252632-53.894737 53.894737-53.894737l592.842105 0c29.642105 0 53.894737 24.252632 53.894737 53.894737l0 431.157895C862.315789 454.063158 838.063158 478.315789 808.421053 478.315789zM565.894737 168.421053l0-53.894737c0-21.557895-18.863158-40.421053-40.421053-40.421053-21.557895 0-40.421053 18.863158-40.421053 40.421053l0 53.894737c-16.168421 13.473684-26.947368 32.336842-26.947368 53.894737 0 37.726316 29.642105 67.368421 67.368421 67.368421 37.726316 0 67.368421-29.642105 67.368421-67.368421C592.842105 200.757895 582.063158 181.894737 565.894737 168.421053zM673.684211 478.315789 350.315789 478.315789l0 107.789474c0 88.926316 72.757895 161.684211 161.684211 161.684211s161.684211-72.757895 161.684211-161.684211L673.684211 478.315789z"  horiz-adv-x="1024" />

    
    <glyph glyph-name="jian1" unicode="&#58913;" d="M980.918297 341.147006 43.079656 341.147006c-23.657816 0-42.856064 19.197224-42.856064 42.8489 0 23.657816 19.198248 42.857087 42.856064 42.857087l937.838641 0c23.697725 0 42.85811-19.199271 42.85811-42.857087C1023.775384 360.344231 1004.616022 341.147006 980.918297 341.147006L980.918297 341.147006z"  horiz-adv-x="1024" />

    
    <glyph glyph-name="jia" unicode="&#58901;" d="M1018.024921 428.332632H553.659381V892.705398h-86.700064v-464.372766H2.586552v-86.700063h464.372765v-464.387215h86.700064V341.632569h464.36554z"  horiz-adv-x="1024" />

    
    <glyph glyph-name="gouwuche" unicode="&#58883;" d="M246.4-16a2.1 2.1 0 1 1 134.4 0 2.1 2.1 0 1 1-134.4 0zM716.8-16a2.1 2.1 0 1 1 134.4 0 2.1 2.1 0 1 1-134.4 0zM905.6 131.2H368c-28.8 0-57.6 25.6-64 54.4L208 752c-9.6 54.4-60.8 96-115.2 96H70.4c-12.8 0-25.6-12.8-25.6-25.6s12.8-25.6 25.6-25.6h22.4c28.8 0 57.6-25.6 64-54.4l96-566.4c9.6-54.4 60.8-96 115.2-96h537.6c12.8 0 25.6 12.8 25.6 25.6s-9.6 25.6-25.6 25.6zM880 716.8H307.2c-12.8 0-25.6-12.8-25.6-25.6s12.8-25.6 25.6-25.6H880c25.6 0 38.4-16 32-41.6l-70.4-281.6c-6.4-32-41.6-57.6-73.6-60.8l-396.8-28.8c-12.8 0-25.6-12.8-22.4-28.8 0-12.8 12.8-25.6 28.8-22.4l396.8 28.8c54.4 3.2 105.6 48 118.4 99.2l70.4 281.6c12.8 54.4-25.6 105.6-83.2 105.6z"  horiz-adv-x="1024" />

    
    <glyph glyph-name="zhuanfa-" unicode="&#58910;" d="M895.548243-64.256359c35.5838 0 64.447637 28.287841 64.447637 64.511638V222.718027c0 17.535901 14.847916 31.743821 31.99982 31.743822 17.663901 0 31.99982-14.527918 31.99982-32.639817v-221.438754A128.06328 128.06328 0 0 0 896.380238-128H127.616562A127.871281 127.871281 0 0 0 0.00128 0.383278v221.438754a32.639816 32.639816 0 0 0 31.99982 32.639817c17.663901 0 31.99982-13.695923 31.99982-31.743822v-222.462748c0-35.647799 28.799838-64.511637 64.447637-64.511638h767.099686zM575.99804 459.644694c-456.061435-12.927927-511.99712-163.51908-511.99712-163.51908 0 230.526703 189.310935 459.517415 575.99676 452.349456v62.527648l1.215993 1.151994H639.99768v14.719917c0 70.079606 43.711754 90.367492 97.663451 44.671749L1003.131637 646.395644c27.007848-22.911871 27.007848-60.031662 0-82.943533l-265.726505-225.726731c-53.759698-45.567744-97.407452-25.727855-97.407452 44.54375V460.540689c-21.823877 0-42.879759-0.255999-63.103645-0.831995L575.99804 460.540689v-0.895995z m63.99964 64.639637c35.327801 0 63.99964-28.543839 63.99964-63.743642v-66.559625l249.598596 211.006813L703.99732 816.634686v-68.095617a63.871641 63.871641 0 0 0-65.215633-63.743641c-239.99865 4.479975-408.125704-91.263487-476.605319-234.238682C254.719847 494.076501 405.247 524.156332 639.99768 524.156332v0.127999z"  horiz-adv-x="1024" />

    
    <glyph glyph-name="dizhi4" unicode="&#58888;" d="M856.041 339.714c63.898 82.594 112.97 152.699 112.97 232.004 0 128.817-108.225 233.171-241.861 233.171s-241.861-104.428-241.861-233.171c0-71.201 42.062-139.186 97.051-212.652l-66.161-21.178-128.233 40.53c15.845 26.509 25.997 52.214 25.997 79.89 0 73.099-59.15 132.323-132.030 132.323-72.954 0-132.030-59.224-132.030-132.323 0-30.523 13.365-60.099 32.717-90.698l-0.586-0.072-180.376-403.542 272.531 102.822 247.996-102.822 232.806 102.822 269.027-102.822-167.959 375.718zM727.222 684.98c64.848 0 117.426-50.68 117.426-113.263 0-62.585-52.652-113.336-117.426-113.336-64.92 0-117.424 50.754-117.424 113.336 0 62.583 52.505 113.263 117.424 113.263zM281.985 522.572c35.344 0 64.117-28.772 64.117-64.262 0-35.418-28.77-64.262-64.117-64.262-35.418 0-64.117 28.846-64.117 64.262 0 35.49 28.699 64.262 64.117 64.262zM750.299 127.939l-228.278-98.875-243.323 98.875-181.469-82.665 103.989 268.296 16.941 3.213c20.666-27.605 43.231-56.742 63.824-89.092 25.633 40.968 52.578 74.998 75.581 106.252l158.759-50.973 99.387 32.35c36.366-46.664 75.51-95.883 111.438-150.143 33.665 51.704 68.499 96.834 101.14 138.676l104.866-261.87-182.856 85.955z"  horiz-adv-x="1024" />

    
    <glyph glyph-name="yanzhengma" unicode="&#58893;" d="M653.131 734.034c-35.171 13.683-140.683 63.739-140.683 63.739s-105.517-49.966-140.69-63.619c-44.705-17.354-178.819-60.409-178.819-60.409V317.5c0-191.756 235.568-359.167 319.149-381.724 82.638 22.557 319.148 189.967 319.148 381.724l0.006 356.244c-0.001 0.001-133.584 42.966-178.111 60.29zM463.413 214.129l-45.197 45.197-124.169 124.169 45.197 45.197 124.169-124.169 226.34 226.34 45.197-45.197-271.537-271.537z"  horiz-adv-x="1024" />

    
    <glyph glyph-name="shouye" unicode="&#58884;" d="M989.867 361.244L512 839.111 34.133 361.244l45.511-39.822 91.023 91.022V-71.11H455.11V156.444H568.89V-71.11h284.444V412.444l91.023-91.022 45.51 39.822zM796.444-14.222H625.778V213.333H398.222v-227.555H227.556V469.333L512 759.467l284.444-290.134v-483.555z"  horiz-adv-x="1024" />

    
    <glyph glyph-name="shoucang2" unicode="&#58904;" d="M707.584 802.816c-77.312 0-148.992-38.912-196.608-102.912-47.104 64-119.296 102.912-196.608 102.912-139.264 0-252.416-123.904-252.416-275.968 0-90.624 40.448-154.624 73.216-205.824C229.888 172.032 468.48-12.8 478.72-20.48c9.728-7.68 20.992-11.264 32.256-11.264s22.528 3.584 32.256 11.264c10.24 7.68 248.32 193.024 343.552 341.504 32.768 51.2 73.216 115.2 73.216 205.824 0 152.064-113.152 275.968-252.416 275.968zM821.76 322.56c-87.552-122.88-272.896-263.168-282.112-269.824-8.704-6.656-18.944-10.24-28.672-10.24-10.24 0-19.968 3.072-28.672 10.24-9.216 6.656-190.976 148.48-282.112 274.944-29.184 46.08-75.776 103.424-75.776 184.32 0 136.192 75.776 231.936 200.192 231.936 69.12 0 144.384-66.048 186.368-123.392 42.496 57.344 117.248 123.392 186.368 123.392 124.928 0 205.824-95.744 205.824-231.936 0-80.896-51.712-143.872-81.408-189.44z"  horiz-adv-x="1024" />

    
    <glyph glyph-name="gou-blue" unicode="&#58887;" d="M512.297984 765.410304c-210.842624 0-381.73696-170.894336-381.73696-381.751296 0-210.855936 170.894336-381.764608 381.73696-381.764608 210.870272 0 381.79328 170.908672 381.79328 381.764608C894.09024 594.5159679999999 723.167232 765.410304 512.297984 765.410304zM758.823936 480.738304l-267.24352-267.230208c-1.718272-1.675264-3.83488-2.501632-5.723136-3.790848-1.316864-1.916928-2.08896-4.076544-3.806208-5.751808-7.469056-7.453696-17.226752-11.188224-26.985472-11.188224-9.786368 0-19.54304 3.733504-27.01312 11.188224L313.530368 318.486528c-14.90944 14.90944-14.90944 39.07584 0 53.997568 14.90944 14.908416 39.089152 14.908416 53.998592 0l87.534592-87.535616 249.759744 249.77408c14.938112 14.90944 39.090176 14.90944 53.998592 0C773.732352 519.8151680000001 773.732352 495.648768 758.823936 480.738304z"  horiz-adv-x="1024" />

    
    <glyph glyph-name="shouji" unicode="&#59821;" d="M512.54613333-5.393066670000053c30.58346667 0 55.7056 25.12213333 55.7056 55.7056s-25.12213333 55.7056-55.7056 55.7056-55.7056-25.12213333-55.7056-55.7056 24.576-55.7056 55.7056-55.7056zM750.11413333 862.4128h-475.136c-44.2368 0-80.2816-36.0448-80.2816-80.2816v-797.9008c0-44.2368 36.0448-80.2816 80.2816-80.2816h475.136c44.2368 0 80.2816 36.0448 80.2816 80.2816V782.1312c0 44.2368-36.0448 80.2816-80.2816 80.2816zM258.048 124.04053333000002h508.45013333v-139.81013333c0-9.28426667-7.64586667-16.384-16.384-16.384h-475.136c-9.28426667 0-16.384 7.64586667-16.384 16.384v139.81013333z m16.93013333 674.47466667h475.136c9.28426667 0 16.384-7.64586667 16.384-16.384v-589.824H258.048v589.824c0 8.73813333 7.64586667 16.384 16.93013333 16.384z"  horiz-adv-x="1024" />

    
    <glyph glyph-name="yuanquan" unicode="&#58994;" d="M512 21.33333300000004a362.666667 362.666667 0 1 0 0 725.333334 362.666667 362.666667 0 0 0 0-725.333334z m0 42.666667a320 320 0 1 1 0 640 320 320 0 0 1 0-640z"  horiz-adv-x="1024" />

    
    <glyph glyph-name="xingbie0" unicode="&#58949;" d="M990.427429 565.101714a511.049143 511.049143 0 0 1-94.793143 157.184C801.828571 828.598857 664.941714 896 512.036571 896 359.094857 896 222.208 828.598857 128.402286 722.285714A510.793143 510.793143 0 0 1 33.609143 565.101714C12.251429 508.708571 0.036571 447.853714 0.036571 384s12.214857-124.708571 33.572572-181.101714a511.049143 511.049143 0 0 1 94.793143-157.184C222.208-60.59885699999995 359.094857-128 512.036571-128c152.905143 0 289.792 67.401143 383.634286 173.714286a511.780571 511.780571 0 0 1 94.793143 157.184c21.357714 56.393143 33.572571 117.248 33.572571 181.101714s-12.251429 124.708571-33.609142 181.101714z m-342.052572-304.091428a36.132571 36.132571 0 1 0 0-72.301715h-101.010286v-101.046857a36.205714 36.205714 0 0 0-36.132571-36.205714 36.205714 36.205714 0 0 0-36.132571 36.205714V188.708571h-101.083429a36.132571 36.132571 0 1 0 0 72.301715h101.083429v68.534857c-89.526857 17.042286-157.586286 95.597714-157.586286 190.025143a193.938286 193.938286 0 0 0 193.718857 193.718857 193.938286 193.938286 0 0 0 193.682286-193.718857c-0.073143-94.390857-68.022857-172.982857-157.586286-190.025143v-68.534857h101.046857zM633.380571 519.570286a121.453714 121.453714 0 0 1-121.344 121.344c-66.925714 0-121.344-54.418286-121.344-121.344s54.418286-121.344 121.344-121.344a121.490286 121.490286 0 0 1 121.344 121.344z"  horiz-adv-x="1024" />

    
    <glyph glyph-name="xingbie1" unicode="&#58950;" d="M962.816366 626.761143a512.365714 512.365714 0 0 1-50.541715 75.958857C818.505509 820.370286 674.231223 896 512.000366 896 349.80608 896 205.531794 820.370286 111.72608 702.72c-18.944-23.734857-35.986286-49.005714-50.505143-75.885714A509.549714 509.549714 0 0 1 0.000366 384c0-87.844571 22.198857-170.569143 61.220571-242.870857 14.518857-26.88 31.597714-52.150857 50.505143-75.885714C205.531794-52.44342900000004 349.842651-128 512.000366-128c162.230857 0 306.468571 75.556571 400.274285 193.243429 18.944 23.734857 35.986286 49.042286 50.541715 75.958857A509.074286 509.074286 0 0 1 1024.000366 384c0 87.844571-22.125714 170.532571-61.184 242.761143z m-186.112-144.713143a35.84 35.84 0 1 0-71.606857 0v47.286857l-111.506286-111.36c21.284571-31.268571 32.841143-68.132571 32.841143-106.678857a189.366857 189.366857 0 0 0-55.698286-134.692571 189.330286 189.330286 0 0 0-134.619429-55.661715 189.403429 189.403429 0 0 0-134.619428 55.661715 190.610286 190.610286 0 0 0 0 269.202285 188.964571 188.964571 0 0 0 134.619428 55.771429c38.692571 0 75.483429-11.556571 106.715429-32.841143l106.020571 106.093714-36.571428 0.036572h-0.146286a35.181714 35.181714 0 0 0-12.397714 2.486857c-0.475429 0.109714-0.987429 0.109714-1.462857 0.292571-0.768 0.329143-1.389714 1.024-2.157715 1.426286a36.498286 36.498286 0 0 0-7.131428 4.827429c-0.658286 0.512-1.499429 0.804571-2.084572 1.426285-0.365714 0.329143-0.512 0.841143-0.804571 1.243429a35.364571 35.364571 0 0 0-6.656 9.837714l-0.182857 0.256-0.036572 0.036572v0.036571a35.328 35.328 0 0 0-2.816 13.897143c0 2.852571 0.877714 5.412571 1.609143 8.045714-0.694857-2.633143-1.609143-5.156571-1.609143-8.009143 0 4.169143 1.060571 8.045714 2.340572 11.776l0.146286 0.694857a6.838857 6.838857 0 0 0 0.329142 1.499429c0.292571 0.731429 0.804571 1.353143 1.316572 1.974857a5.888 5.888 0 0 1 0.877714 1.316572c2.816 5.046857 6.875429 9.252571 11.556572 12.470857l2.304 1.462857c0.804571 0.475429 1.536 1.097143 2.377142 1.499428 0.219429 0.073143 0.365714 0.256 0.548572 0.365715 0.658286 0.256 1.462857 0.256 2.157714 0.438857a32.914286 32.914286 0 0 0 11.739429 2.340571h0.109714l123.355429 0.036572a35.364571 35.364571 0 0 0 0-0.036572h-0.073143a35.730286 35.730286 0 0 0 15.835428-4.096 34.377143 34.377143 0 0 0 7.753143-5.229714c0.877714-0.768 1.792-1.426286 2.523429-2.304 0.804571-0.877714 1.609143-1.718857 2.304-2.706286 7.643429-6.582857 12.726857-15.981714 12.726857-26.843428v-123.282286zM436.151223 429.824c-31.670857 0-61.476571-12.397714-83.858286-34.742857a118.747429 118.747429 0 0 1 0-167.753143 118.125714 118.125714 0 0 1 83.858286-34.669714 118.125714 118.125714 0 0 1 83.858286 34.669714 118.125714 118.125714 0 0 1 34.742857 83.968c0 31.597714-12.361143 61.44-34.742857 83.821714a117.906286 117.906286 0 0 1-83.858286 34.706286zM612.279223 646.546286h-0.109714a33.572571 33.572571 0 0 1-11.739429-2.340572 57.417143 57.417143 0 0 0 7.058286 1.426286c1.645714 0.182857 3.072 0.914286 4.790857 0.914286zM578.779794 622.4822859999999a36.096 36.096 0 0 1-2.340571-11.776c0 2.852571 0.914286 5.376 1.609143 8.009143 0.402286 1.462857 0.365714 3.072 0.877714 4.498285a4.315429 4.315429 0 0 0-0.146286-0.731428zM598.272366 643.766857c-0.182857-0.073143-0.329143-0.292571-0.548572-0.365714-0.841143-0.402286-1.572571-1.024-2.377143-1.499429 1.609143 0.914286 3.328 1.609143 5.083429 2.304-0.694857-0.219429-1.499429-0.182857-2.157714-0.438857zM581.449509 627.9680000000001a10.313143 10.313143 0 0 0-0.877715-1.316571 35.401143 35.401143 0 0 0 12.470857 13.787428 37.485714 37.485714 0 0 1-11.593142-12.470857zM579.255223 624.676571a6.034286 6.034286 0 0 1-0.329143-1.499428c0.475429 1.206857 1.060571 2.304 1.645714 3.474286-0.512-0.621714-1.024-1.243429-1.316571-1.974858zM735.634651 646.546286h-123.355428H735.634651zM579.255223 596.699429l0.036571-0.036572 0.182857-0.256-0.219428 0.329143zM586.935223 585.3257140000001c0.585143-0.621714 1.426286-0.914286 2.084571-1.426285-0.987429 0.841143-2.011429 1.682286-2.889143 2.633142 0.292571-0.329143 0.438857-0.841143 0.804572-1.206857zM598.272366 577.682286c0.475429-0.182857 0.987429-0.146286 1.462857-0.292572-1.243429 0.475429-2.377143 1.097143-3.620572 1.718857 0.768-0.402286 1.389714-1.097143 2.157715-1.426285zM588.983223 583.9359999999999a37.632 37.632 0 0 1 0.219428-0.146286l-0.219428 0.146286zM599.735223 577.389714a34.230857 34.230857 0 0 1 12.397714-2.486857h0.146286c-2.157714 0-4.022857 0.841143-6.070857 1.206857-2.157714 0.365714-4.388571 0.658286-6.473143 1.28zM648.960366 574.866286h-36.681143l36.571428-0.036572h0.073143z"  horiz-adv-x="1024" />

    
    <glyph glyph-name="gouwuqingdanicon" unicode="&#58940;" d="M903.529412 621.929412s0 3.011765 0 0c-3.011765 6.023529-6.023529 9.035294-9.035294 15.058823L647.529412 886.964706c-3.011765 3.011765-9.035294 6.023529-12.047059 9.035294H120.470588C87.341176 896 60.235294 868.894118 60.235294 835.764706v-903.529412c0-33.129412 27.105882-60.235294 60.235294-60.235294h722.82353c33.129412 0 60.235294 27.105882 60.235294 60.235294V606.870588v15.058824zM822.211765 624.941176H632.470588V817.694118L822.211765 624.941176z m21.082353-692.705882H120.470588V835.764706h451.764706v-210.82353c0-33.129412 27.105882-60.235294 60.235294-60.235294h210.82353v-632.470588zM665.6 173.176471H298.164706c-15.058824 0-27.105882-12.047059-27.105882-30.117647s12.047059-30.117647 27.105882-30.117648H662.588235c15.058824 0 27.105882 12.047059 27.105883 30.117648s-9.035294 30.117647-24.094118 30.117647zM271.058824 444.235294c0-18.070588 12.047059-30.117647 27.105882-30.117647H662.588235c15.058824 0 27.105882 12.047059 27.105883 30.117647s-12.047059 30.117647-27.105883 30.117647H298.164706c-15.058824 0-27.105882-12.047059-27.105882-30.117647zM665.6 323.764706H298.164706c-15.058824 0-27.105882-12.047059-27.105882-30.117647s12.047059-30.117647 27.105882-30.117647H662.588235c15.058824 0 27.105882 12.047059 27.105883 30.117647s-9.035294 30.117647-24.094118 30.117647z"  horiz-adv-x="1024" />

    
    <glyph glyph-name="shoujihao" unicode="&#58885;" d="M697.290105 896H326.709895C280.414316 896 242.526316 858.704842 242.526316 813.109895v-829.170527c0-45.594947 37.888-82.944 84.183579-82.944h370.58021c46.295579 0 84.183579 37.349053 84.183579 82.944V813.109895C781.473684 858.704842 743.585684 896 697.290105 896zM461.500632 829.709474h101.052631a16.707368 16.707368 0 0 0 16.922948-16.599579c0-9.162105-7.599158-16.599579-16.922948-16.599579H461.500632a16.707368 16.707368 0 0 0-16.815158 16.599579c0 9.162105 7.545263 16.545684 16.815158 16.545684z m50.553263-895.514948a50.122105 50.122105 0 0 0-50.661053 49.744842c0 27.486316 22.635789 49.744842 50.607158 49.744843a50.122105 50.122105 0 0 0 50.499368-49.744843 50.122105 50.122105 0 0 0-50.499368-49.744842z m235.735579 132.634948H276.210526V730.165895h471.578948v-663.336421z"  horiz-adv-x="1024" />

    
    <glyph glyph-name="wodeshoucangai" unicode="&#58921;" d="M1011.2 508.416c-11.264 31.744-38.912 54.272-73.216 59.392l-239.616 35.328-103.936 212.48c-14.848 30.72-47.616 50.688-82.944 50.688-35.328 0-67.584-19.968-82.432-50.688L325.12 602.624l-239.104-35.328c-33.792-5.12-61.952-27.648-73.216-59.392C2.048 476.16 10.24 441.856 34.304 417.792L209.92 244.736 168.96 5.1200000000000045c-5.632-33.28 9.216-67.584 37.888-87.04 28.16-18.944 66.048-20.992 96.256-5.12l208.384 110.592 208.384-110.592c13.312-7.168 28.672-10.752 44.032-10.752 18.944 0 36.864 5.632 52.736 15.872 28.672 19.456 43.52 53.76 37.888 87.04l-40.96 239.616 175.616 173.056c24.576 24.064 32.768 58.368 22.016 90.624z m-70.144-61.952l-184.32-181.248 43.008-251.392c2.56-16.384-4.096-32.256-18.432-41.984-14.336-9.728-33.792-10.752-49.152-2.56l-220.16 116.224-219.648-116.736c-15.36-8.192-34.816-7.168-49.152 2.56s-21.504 25.6-18.432 41.984l43.008 251.392-184.32 181.248c-11.776 11.264-15.872 28.16-10.24 43.008 5.632 15.36 19.456 26.624 36.352 29.184l251.904 36.864L471.04 779.264c7.68 15.36 23.552 25.088 41.472 25.088s34.304-9.728 41.472-25.088l109.568-224.256 251.904-36.864c16.896-2.56 31.232-13.824 36.352-29.184 4.608-14.336 1.024-31.232-10.752-42.496zM508.928 560.64c-45.056 0-80.896-13.824-107.52-40.448C357.888 475.136 358.4 409.6 358.4 407.04c0.512-11.776 10.24-21.504 22.016-21.504h0.512c12.288 0 21.504 10.24 21.504 22.528 0 0.512-0.512 50.176 30.72 81.92 17.92 17.92 43.52 27.136 75.776 27.136 12.288 0 22.016 9.728 22.016 22.016 0 11.776-9.728 21.504-22.016 21.504z m0 0M508.928 560.64c-45.056 0-80.896-13.824-107.52-40.448C357.888 475.136 358.4 409.6 358.4 407.04c0.512-11.776 10.24-21.504 22.016-21.504h0.512c12.288 0 21.504 10.24 21.504 22.528 0 0.512-0.512 50.176 30.72 81.92 17.92 17.92 43.52 27.136 75.776 27.136 12.288 0 22.016 9.728 22.016 22.016 0 11.776-9.728 21.504-22.016 21.504z"  horiz-adv-x="1024" />

    
    <glyph glyph-name="guanyuwomen" unicode="&#59106;" d="M542.72 245.76c-74.24-64-51.2 48.64-48.64 64 2.56 15.36 51.2 110.08 15.36 128-35.84 15.36-143.36-64-143.36-64s-17.92-12.8-15.36-15.36c12.8-20.48 64 15.36 64 15.36s17.92 15.36 15.36 0c-15.36-61.44-25.6-125.44-30.72-189.44 7.68-40.96 74.24-25.6 125.44 30.72 53.76 53.76 17.92 30.72 17.92 30.72z m-38.4 348.16c-30.72 2.56-56.32-23.04-58.88-51.2-2.56-30.72 23.04-56.32 51.2-58.88 30.72-2.56 56.32 23.04 58.88 51.2 5.12 30.72-20.48 56.32-51.2 58.88z m355.84-586.24l-102.4 87.04c71.68 76.8 110.08 176.64 110.08 281.6 0 230.4-186.88 414.72-414.72 414.72S38.4 604.16 38.4 376.32c0-230.4 186.88-414.72 414.72-414.72h389.12c15.36 0 28.16 10.24 28.16 25.6 0 7.68-2.56 15.36-10.24 20.48z m-404.48 5.12c-202.24 0-366.08 163.84-366.08 366.08S253.44 744.96 455.68 744.96s366.08-163.84 366.08-366.08c0-102.4-40.96-197.12-115.2-266.24-10.24-10.24-10.24-28.16 0-40.96l2.56-2.56 66.56-56.32H455.68z"  horiz-adv-x="1024" />

    
    <glyph glyph-name="gouwuche1" unicode="&#58886;" d="M347.136 112.63999999999999q19.456 0 36.864-7.168t30.72-19.968 20.48-30.208 7.168-36.864-7.168-36.864-20.48-30.208-30.72-20.48-36.864-7.68q-20.48 0-37.376 7.68t-30.208 20.48-20.48 30.208-7.168 36.864 7.168 36.864 20.48 30.208 30.208 19.968 37.376 7.168zM773.12 110.59199999999998q19.456 0 37.376-7.168t30.72-19.968 20.48-30.208 7.68-36.864-7.68-36.864-20.48-30.208-30.72-20.48-37.376-7.68-36.864 7.68-30.208 20.48-20.48 30.208-7.68 36.864 7.68 36.864 20.48 30.208 30.208 19.968 36.864 7.168zM945.152 692.2239999999999q28.672 0 44.544-7.68t22.528-18.944 6.144-24.064-3.584-22.016-12.8-37.888-22.016-62.976-24.064-68.096-17.92-53.248q-13.312-40.96-33.792-56.832t-50.176-15.872l-34.816 0-66.56 0-87.04 0-95.232 0-253.952 0 15.36-92.16 516.096 0q49.152 0 49.152-41.984 0-20.48-9.728-35.328t-38.4-14.848l-49.152 0-95.232 0-117.76 0-119.808 0-98.304 0-56.32 0q-20.48 0-34.304 9.216t-23.04 24.064-14.848 32.256-8.704 32.768q-1.024 6.144-5.632 29.696t-11.264 58.88-14.848 78.848-16.384 87.552q-19.456 103.424-44.032 230.4l-76.8 0q-15.36 0-25.6 7.68t-16.896 18.432-9.216 23.04-2.56 22.528q0 20.48 13.824 33.792t37.376 13.312l22.528 0 20.48 0 25.6 0 34.816 0q20.48 0 32.768-6.144t19.456-15.36 10.24-19.456 5.12-17.408q2.048-8.192 4.096-23.04t4.096-30.208q3.072-18.432 6.144-38.912l700.416 0z"  horiz-adv-x="1024" />

    
    <glyph glyph-name="jia1" unicode="&#59077;" d="M510.661515 831.495894c-247.420089 0-447.993221-200.574155-447.99322-447.993221 0-247.420089 200.573131-447.993221 447.99322-447.99322 247.421112 0 447.993221 200.573131 447.993221 447.99322 0 247.420089-200.572108 447.993221-447.993221 447.993221z m200.058409-490.602668H553.270962v-157.448961c0-23.530926-19.078521-42.609447-42.609447-42.609447s-42.609447 19.078521-42.609446 42.609447V340.893226H310.603107c-23.530926 0-42.609447 19.078521-42.609447 42.609447 0 23.530926 19.078521 42.609447 42.609447 42.609447h157.448962V583.561082c0 23.530926 19.078521 42.609447 42.609446 42.609446s42.609447-19.078521 42.609447-42.609446v-157.448962h157.448962c23.530926 0 42.609447-19.078521 42.609447-42.609447 0.001023-23.530926-19.077497-42.609447-42.609447-42.609447z"  horiz-adv-x="1024" />

    
    <glyph glyph-name="arrow-right" unicode="&#58881;" d="M267.354606 823.994036c-13.515828-12.812817-13.515828-33.603329 0-46.417169l414.889265-393.579937-414.889265-393.565611c-13.515828-12.821003-13.515828-33.604352 0-46.425356 13.508665-12.81998 35.418674-12.81998 48.927339 0l432.159604 410.009118c0 0 18.33867 16.991999 18.33867 29.981848 0 11.971659-18.33867 29.989011-18.33867 29.989011L316.282968 823.994036C302.77328 836.815039 280.863271 836.815039 267.354606 823.994036z"  horiz-adv-x="1024" />

    
    <glyph glyph-name="zan" unicode="&#58882;" d="M1022.573469 487.455944a143.249009 143.249009 0 0 1-111.070124 51.512701h-247.797281a432.461708 432.461708 0 0 1 25.657033 113.718592 263.456348 263.456348 0 0 1-27.411643 152.286906 181.718006 181.718006 0 0 1-138.713508 89.385793 96.006963 96.006963 0 0 1-72.50181-15.559749c-39.892548-29.03383-47.242047-84.287492-55.717144-148.247992a392.238101 392.238101 0 0 0-40.289818-150.631614c-17.248147-27.742702-50.784373-64.589512-142.785528-64.589512h-96.006962a113.817909 113.817909 0 0 1-115.870472-111.268759v-420.676025A113.817909 113.817909 0 0 1 115.870472-127.981792h699.361064a146.228536 146.228536 0 0 1 88.061558 29.4311 136.197463 136.197463 0 0 1 49.923621 75.61376L1049.455418 371.916531a131.132269 131.132269 0 0 1-26.915055 115.440096zM77.302158-16.679927V403.996098a37.939303 37.939303 0 0 0 38.634526 37.078551h81.473495v-494.833127H115.870472a37.939303 37.939303 0 0 0-38.634526 37.078551z m896.936771 405.579758l-96.205597-394.919674a63.662548 63.662548 0 0 0-62.735585-47.738635H274.778548V446.437797a208.00405 208.00405 0 0 1 146.394065 95.377951 444.677766 444.677766 0 0 1 50.618843 179.30128 573.658154 573.658154 0 0 0 12.017424 70.383035 51.876866 51.876866 0 0 0 13.705821 28.106866 21.088426 21.088426 0 0 0 14.43415 1.291128 104.548272 104.548272 0 0 0 82.268036-51.578913c33.999707-59.888481 18.969652-160.927533-13.440975-229.787699a50.983008 50.983008 0 0 1 3.873384-50.552632 55.518509 55.518509 0 0 1 46.348189-24.200376h280.638283a65.251629 65.251629 0 0 0 50.519526-23.405835 59.590528 59.590528 0 0 0 12.216059-52.472771z"  horiz-adv-x="1054" />

    
    <glyph glyph-name="fanhuidingbu" unicode="&#59391;" d="M512 890.88C233.2672 890.88 5.12 662.8352 5.12 384c0-278.7328 228.0448-506.88 506.88-506.88 278.7328 0 506.88 228.1472 506.88 506.88C1018.88 662.8352 790.7328 890.88 512 890.88z m190.0544-578.6624c-10.5472-10.5472-29.5936-10.5472-40.1408 0L541.5936 432.5376v-333.7216c0-14.7456-12.6976-27.4432-27.4432-27.4432-15.0528 0.2048-27.2384 12.3904-27.4432 27.4432v335.872L364.1344 312.2176c-10.5472-10.5472-27.4432-10.5472-40.1408 0-10.5472 10.5472-10.5472 27.4432 0 40.1408L514.048 542.4128l187.904-187.904c10.6496-12.6976 10.6496-31.744 0.1024-42.2912z m14.848 270.336c0-14.848-12.6976-27.4432-27.4432-27.4432H334.5408c-15.0528 0.2048-27.2384 12.3904-27.4432 27.4432 0 14.7456 12.6976 27.4432 27.4432 27.4432h356.9664c12.6976 2.1504 25.3952-10.5472 25.3952-27.4432z m0 0"  horiz-adv-x="1024" />

    
    <glyph glyph-name="dizhi" unicode="&#59582;" d="M512 797.8c-192.1 0-342.4-143.7-342.4-327.1 0-179 309.8-470.1 322.9-482.5l19.6-18.2 19.4 18.2c13.3 12.4 323 303.5 323 482.5C854.4 654.1 703.9 797.8 512 797.8z m0-749.1c-94.8 92.4-285.3 302.6-285.3 422.1 0 153.8 122.6 270 285.3 270s285.3-116.1 285.3-270c0-119.3-190.7-329.7-285.3-422.1zM512 603.7c-78.8 0-142.7-64.1-142.7-142.8 0-78.6 63.9-142.7 142.7-142.7 78.6 0 142.7 64.1 142.7 142.7 0 78.7-64.1 142.8-142.7 142.8z m0-228.4c-47.3 0-85.7 38.4-85.7 85.6 0 47.3 38.4 85.6 85.7 85.6 47.1 0 85.6-38.2 85.6-85.6 0-47.2-38.5-85.6-85.6-85.6z"  horiz-adv-x="1024" />

    
    <glyph glyph-name="shoucang1" unicode="&#58945;" d="M707.584 802.816c-77.312 0-148.992-38.912-196.608-102.912-47.104 64-119.296 102.912-196.608 102.912-139.264 0-252.416-123.904-252.416-275.968 0-90.624 40.448-154.624 73.216-205.824C229.888 172.03200000000004 468.48-12.799999999999955 478.72-20.480000000000018c9.728-7.68 20.992-11.264 32.256-11.264s22.528 3.584 32.256 11.264c10.24 7.68 248.32 193.024 343.552 341.504 32.768 51.2 73.216 115.2 73.216 205.824 0 152.064-113.152 275.968-252.416 275.968z"  horiz-adv-x="1024" />

    
    <glyph glyph-name="suo1" unicode="&#58902;" d="M829.6-64.6h-634c-35.9 0-65.8 23.9-65.8 65.8V461.8c0 35.9 29.9 65.8 65.8 65.8h634c35.9 0 65.8-29.9 65.8-65.8v-460.5c6-41.9-23.9-65.9-65.8-65.9z m-634 532.3c-5.9 0-5.9-5.9 0 0l-6-466.5c0-6 0-6 6-6h634c6 0 6 0 6 6V461.8c0 6 0 6-6 6h-634zM590.4 306.2c0 41.9-41.9 77.8-77.8 77.8-41.9 0-71.8-41.9-71.8-77.8 0-29.9 17.9-59.8 47.8-65.8v-107.7c0-12 6-17.9 17.9-17.9h23.9c12 0 17.9 6 17.9 17.9V240.5c24.1 5.9 42.1 35.8 42.1 65.7z m173.4 197.4H704v89.7c0 101.7-83.7 179.4-179.4 179.4-101.7 0-179.4-83.7-179.4-179.4v-89.7h-59.8v89.7c0 131.6 107.7 239.2 239.2 239.2s239.2-107.7 239.2-239.2v-89.7z"  horiz-adv-x="1024" />

    
    <glyph glyph-name="weizhi" unicode="&#58880;" d="M513.024-128h-1.024c-17.92 0-34.816 7.168-47.104 20.48-9.728 10.24-97.28 102.912-184.832 219.648C162.304 270.336 102.4 396.8 102.4 486.912 102.4 712.704 286.208 896 512 896s409.6-183.296 409.6-409.088c0-54.784-20.992-121.856-62.976-199.68-39.936-74.752-100.352-161.792-179.712-258.048l-0.512-0.512-117.76-134.144c-11.776-14.336-29.184-22.528-47.616-22.528z m-1.024 423.936c105.984 0 191.488 86.016 191.488 191.488S617.984 678.4 512 678.4 320 592.896 320 486.912s86.016-190.976 192-190.976z"  horiz-adv-x="1024" />

    
    <glyph glyph-name="weixinzhifu1" unicode="&#58978;" d="M405.11 267.28c-53.87-32.54-61.86 18.26-61.86 18.26l-67.51 170.64c-25.98 81.09 22.48 36.56 22.48 36.56s41.58-34.07 73.14-54.83c31.54-20.77 67.49-6.1 67.49-6.1l441.37 220.67C798.78 762.24 664.27 834 511.98 834 263.45 834 62 643.02 62 407.42c0-135.53 66.7-256.13 170.61-334.3l-18.74-116.68s-9.14-34.06 22.52-18.26c21.57 10.76 76.56 49.38 109.3 72.85A470.285 470.285 0 0 1 512-19.17c248.51 0 450 190.98 450 426.58 0 68.24-16.98 132.69-47.05 189.9-140.63-91.64-467.7-304.62-509.84-330.03z"  horiz-adv-x="1024" />

    
    <glyph glyph-name="jian" unicode="&#58911;" d="M508 843.6c63.6 0 123.2-12 179.2-36.4s104.8-57.2 146-98.4 74-89.6 98.4-145.6c24.4-55.6 36.4-115.2 36.4-178.8 0-63.6-12-123.2-36.4-179.2-24.4-56-57.2-104.8-98.4-146s-90-74-146-98.4c-56-24.4-115.6-36.4-179.2-36.4-63.6 0-123.2 12-178.8 36.4-55.6 24.4-104 57.2-145.6 98.4s-74 90-98.4 146-36.4 115.6-36.4 179.2c0 63.6 12 123.2 36.4 178.8S142.4 668 184 709.2s89.6 74 145.6 98.4 114.8 36 178.4 36z m212-506c18 0 72.4 0 70 55.6-2.4 53.2-52 53.2-70 53.2H332.8c-18 0-72 0-72-53.2 0-58.4 54-55.6 72-55.6H720z"  horiz-adv-x="1024" />

    
    <glyph glyph-name="bianji" unicode="&#59010;" d="M866.290776 459.106237a30.188981 30.188981 0 0 1-32.089498-31.870207v-408.099469a79.236938 79.236938 0 0 0-76.970937-82.891778H160.468016a96.999462 96.999462 0 0 0-96.195397 82.891778V612.170949A102.335529 102.335529 0 0 0 160.468016 701.42215h340.046342a30.188981 30.188981 0 0 1 32.089498 31.870207 30.188981 30.188981 0 0 1-32.089498 31.870208H160.468016A153.503293 153.503293 0 0 1 0.093623 612.170949v-592.961291A148.167226 148.167226 0 0 1 160.468016-127.495632h596.689228a132.816897 132.816897 0 0 1 141.149933 146.632193V420.730414a35.744338 35.744338 0 0 1-32.089498 38.22963m128.357992 357.224091l-51.167765 51.167765a101.16598 101.16598 0 0 1-141.149932 0L712.275805 758.803143 224.647011 286.963259v-12.426457l-64.178995-210.738092 44.881439-38.22963 198.896409 70.099837h12.865038l468.404334 490.991247 109.060435 89.2512a99.630947 99.630947 0 0 1 0 140.272771m-744.271681-701.729339l32.089498 89.616685 57.746477-57.380993-89.835975-31.870208m147.582452 63.740415L308.050467 267.811896 750.797822 701.42215l83.403456-82.891778-436.314836-439.969677m551.80779 548.226046l-64.178996-63.740414-95.976107 95.756816 63.886609 63.959705c6.432519 0 19.22446 6.359422 25.656979 6.359422s19.22446-6.359422 25.656979-6.359422l51.167764-51.167764a39.106791 39.106791 0 0 0-6.432519-44.662149"  horiz-adv-x="1024" />

    
    <glyph glyph-name="yue" unicode="&#59001;" d="M313.8 829.9l66.1-85.9h231.2l66.1 85.9 6.6 13.2v6.6c0 13.2-6.6 19.8-19.8 26.4 0 0-92.5 19.8-171.8 19.8-79.3 0-171.8-19.8-171.8-19.8-33-13.1-6.6-46.2-6.6-46.2z m317.1-145.3H393.1c-185-66.1-336.9-270.9-336.9-462.4C56.2-15.7 188.3-128 512-128c323.7 0 455.8 112.3 455.8 350.1 0 191.6-151.9 396.4-336.9 462.5z m46.3-488.9c13.2 0 26.4-13.2 26.4-26.4s-13.2-26.4-26.4-26.4H545v-92.5c0-13.2-13.2-26.4-26.4-26.4s-26.4 13.2-26.4 26.4v85.9H360.1c-13.2 0-26.4 13.2-26.4 26.4s13.2 26.4 26.4 26.4h132.1v72.7H360.1c-13.2 0-26.4 13.2-26.4 26.4s13.2 26.4 26.4 26.4h138.7v6.6s-6.6 0-6.6 6.6L386.5 453.4c-13.2 6.6-13.2 26.4 0 39.6 13.2 13.2 33 6.6 39.6-6.6l92.5-105.7 92.5 105.7c13.2 13.2 26.4 13.2 39.6 6.6 13.2-13.2 13.2-26.4 6.6-39.6L551.6 327.8c0-6.6-6.6-6.6-13.2-6.6h138.7c13.2 0 26.4-13.2 26.4-26.4s-13.2-26.4-26.4-26.4H545v-72.7h132.2z m0 0"  horiz-adv-x="1024" />

    
    <glyph glyph-name="fenxiang" unicode="&#59822;" d="M511.998 832c21 0 38.1-17 38.1-38.1s-17-38.1-38.1-38.1c-205.4 0-371.9-166.5-371.9-371.9s166.5-371.8 371.9-371.8 371.9 166.5 371.9 371.9c0 21 17 38.1 38.1 38.1s38-17.1 38-38.1c0-247.4-200.6-448-448-448s-448 200.6-448 448 200.6 448 448 448z m230.6-190.5c-14.2 14.7-14 38 0.5 52.4 14.5 14.5 37.8 14.6 52.7 0.2l65.6-65.6c19.8-19.8 19.8-51.8 0-71.6l-65.6-65.6c-14.6-14.6-38.3-14.6-52.9 0-14.6 14.6-14.6 38.3 0 52.9l11.1 11.1h-48.3c-131.3 0-175.9-55.9-175.9-225 0-20.7-16.7-37.4-37.4-37.4s-37.4 16.7-37.4 37.4c0 209.1 76.3 299.8 250.7 299.8h48.3l-11.4 11.4z"  horiz-adv-x="1024" />

    


  </font>
</defs>
</svg>
